<svg xmlns="http://www.w3.org/2000/svg" viewBox="0 0 800 600" width="800" height="600">
  <!-- Parchment background -->
  <rect width="100%" height="100%" fill="#F5F0E5" opacity="0.9"/>
  
  <!-- Background texture -->
  <rect width="100%" height="100%" fill="url(#parchmentTexture)" opacity="0.3"/>
  
  <!-- Aries Ram Illustration -->
  <g transform="translate(100,50)" fill="none" stroke="#8B4513" stroke-width="2">
    <!-- Ram body -->
    <path d="M300,300 C400,280 500,300 550,370 C600,440 550,500 480,500 C410,500 320,450 280,400 C240,350 220,320 300,300 Z" fill="#E6D2B5"/>
    
    <!-- Ram head -->
    <path d="M280,300 C220,280 200,220 230,180 C260,140 320,140 350,180 C380,220 340,320 280,300" fill="#E6D2B5"/>
    
    <!-- Ram face details -->
    <ellipse cx="270" cy="200" rx="10" ry="8"/> <!-- eye -->
    <path d="M250,230 C260,240 280,240 290,230"/> <!-- mouth -->
    
    <!-- Ram horns -->
    <path d="M230,180 C210,140 220,100 240,80 C260,60 290,80 300,110 C310,140 290,150 270,160" fill="none" stroke-width="3"/>
    <path d="M330,180 C350,140 370,100 390,80 C410,60 440,80 430,110 C420,140 400,150 370,160" fill="none" stroke-width="3"/>
    
    <!-- Ram legs -->
    <path d="M350,450 L330,520"/> <!-- front leg -->
    <path d="M380,460 L360,530"/> <!-- front leg -->
    <path d="M450,480 L440,550"/> <!-- back leg -->
    <path d="M500,470 L510,540"/> <!-- back leg -->
    
    <!-- Ram tail -->
    <path d="M550,420 C570,430 580,450 570,480" stroke-width="2"/>
  </g>
  
  <!-- Decorative border -->
  <rect x="10" y="10" width="780" height="580" stroke="#8B4513" stroke-width="4" fill="none"/>
  <rect x="20" y="20" width="760" height="560" stroke="#8B4513" stroke-width="1" fill="none"/>
  
  <!-- Star pattern in corner -->
  <g transform="translate(600,50)" stroke="#8B4513" fill="none">
    <path d="M30,30 L70,70 M30,70 L70,30" stroke-width="2"/>
    <path d="M50,20 L50,80 M20,50 L80,50" stroke-width="2"/>
  </g>
  
  <!-- Decorative corner elements -->
  <path d="M30,30 C50,50 70,50 90,30" stroke="#8B4513" stroke-width="2" fill="none"/>
  <path d="M30,570 C50,550 70,550 90,570" stroke="#8B4513" stroke-width="2" fill="none"/>
  <path d="M710,30 C690,50 670,50 650,30" stroke="#8B4513" stroke-width="2" fill="none"/>
  <path d="M710,570 C690,550 670,550 650,570" stroke="#8B4513" stroke-width="2" fill="none"/>
  
  <!-- Definitions -->
  <defs>
    <pattern id="parchmentTexture" patternUnits="userSpaceOnUse" width="100" height="100">
      <rect width="100" height="100" fill="#F5F0E5"/>
      <rect width="100" height="100" fill="#8B4513" opacity="0.05"/>
      <rect x="0" y="0" width="100" height="20" fill="#8B4513" opacity="0.02"/>
      <rect x="0" y="40" width="100" height="20" fill="#8B4513" opacity="0.02"/>
      <rect x="0" y="80" width="100" height="20" fill="#8B4513" opacity="0.02"/>
    </pattern>
  </defs>
</svg>