<svg xmlns="http://www.w3.org/2000/svg" viewBox="0 0 800 600" width="800" height="600">
  <!-- Parchment background -->
  <rect width="100%" height="100%" fill="#F5F0E5" opacity="0.9"/>
  
  <!-- Background texture -->
  <rect width="100%" height="100%" fill="url(#parchmentTexture)" opacity="0.3"/>
  
  <!-- Taurus Bull Illustration -->
  <g transform="translate(100,50)" fill="none" stroke="#8B4513" stroke-width="2">
    <!-- Bull body -->
    <path d="M300,300 C400,280 500,300 550,370 C600,440 550,500 480,500 C410,500 320,450 280,400 C240,350 220,320 300,300 Z" fill="#E6D2B5"/>
    
    <!-- Bull head -->
    <path d="M280,300 C220,280 200,200 250,180 C300,160 350,180 380,220 C410,260 340,320 280,300" fill="#E6D2B5"/>
    
    <!-- Bull face details -->
    <ellipse cx="270" cy="200" rx="10" ry="8"/> <!-- eye -->
    <path d="M250,230 C260,240 280,240 290,230"/> <!-- mouth -->
    
    <!-- Bull horns -->
    <path d="M230,180 C210,140 220,100 240,80" fill="none" stroke-width="3"/>
    <path d="M290,160 C310,120 340,100 370,90" fill="none" stroke-width="3"/>
    
    <!-- Bull legs -->
    <path d="M350,450 L330,520"/> <!-- front leg -->
    <path d="M380,460 L360,530"/> <!-- front leg -->
    <path d="M450,480 L440,550"/> <!-- back leg -->
    <path d="M500,470 L510,540"/> <!-- back leg -->
    
    <!-- Bull tail -->
    <path d="M550,420 C570,430 580,450 570,480" stroke-width="2"/>
  </g>
  
  <!-- Decorative border -->
  <rect x="10" y="10" width="780" height="580" stroke="#8B4513" stroke-width="4" fill="none"/>
  <rect x="20" y="20" width="760" height="560" stroke="#8B4513" stroke-width="1" fill="none"/>
  
  <!-- Pleiades star cluster in corner -->
  <g transform="translate(600,50)" stroke="#8B4513" fill="none">
    <circle cx="30" cy="30" r="3" fill="#8B4513"/>
    <circle cx="40" cy="40" r="3" fill="#8B4513"/>
    <circle cx="50" cy="35" r="3" fill="#8B4513"/>
    <circle cx="60" cy="45" r="3" fill="#8B4513"/>
    <circle cx="70" cy="35" r="3" fill="#8B4513"/>
    <circle cx="80" cy="50" r="3" fill="#8B4513"/>
    <circle cx="90" cy="40" r="3" fill="#8B4513"/>
  </g>
  
  <!-- Decorative corner elements -->
  <path d="M30,30 C50,50 70,50 90,30" stroke="#8B4513" stroke-width="2" fill="none"/>
  <path d="M30,570 C50,550 70,550 90,570" stroke="#8B4513" stroke-width="2" fill="none"/>
  <path d="M710,30 C690,50 670,50 650,30" stroke="#8B4513" stroke-width="2" fill="none"/>
  <path d="M710,570 C690,550 670,550 650,570" stroke="#8B4513" stroke-width="2" fill="none"/>
  
  <!-- Definitions -->
  <defs>
    <pattern id="parchmentTexture" patternUnits="userSpaceOnUse" width="100" height="100">
      <rect width="100" height="100" fill="#F5F0E5"/>
      <rect width="100" height="100" fill="#8B4513" opacity="0.05"/>
      <rect x="0" y="0" width="100" height="20" fill="#8B4513" opacity="0.02"/>
      <rect x="0" y="40" width="100" height="20" fill="#8B4513" opacity="0.02"/>
      <rect x="0" y="80" width="100" height="20" fill="#8B4513" opacity="0.02"/>
    </pattern>
  </defs>
</svg>