<svg xmlns="http://www.w3.org/2000/svg" viewBox="0 0 100 100" fill="#FFD700">
  <path d="M70,40 C70,29.5 61.5,21 51,21 C40.5,21 32,29.5 32,40 C32,50.5 40.5,59 51,59 C52.6,59 54.1,58.8 55.6,58.4 C54.6,60.4 54,62.7 54,65 C54,71.6 59.4,77 66,77 C72.6,77 78,71.6 78,65 C78,58.4 72.6,53 66,53 C64.1,53 62.3,53.4 60.6,54.2 C61.5,52.3 62,50.2 62,48 L70,48 L70,40 Z M51,51 C44.9,51 40,46.1 40,40 C40,33.9 44.9,29 51,29 C57.1,29 62,33.9 62,40 C62,46.1 57.1,51 51,51 Z M66,69 C63.8,69 62,67.2 62,65 C62,62.8 63.8,61 66,61 C68.2,61 70,62.8 70,65 C70,67.2 68.2,69 66,69 Z"/>
</svg>